<?xml version="1.0" encoding="UTF-8" standalone="no"?>
<!-- Created with Inkscape (http://www.inkscape.org/) -->

<svg
   width="254mm"
   height="22.609833mm"
   viewBox="0 0 254 22.609833"
   version="1.1"
   id="svg1"
   xml:space="preserve"
   sodipodi:docname="layer-horizontal.svg"
   inkscape:version="1.3.2 (091e20e, 2023-11-25)"
   xmlns:inkscape="http://www.inkscape.org/namespaces/inkscape"
   xmlns:sodipodi="http://sodipodi.sourceforge.net/DTD/sodipodi-0.dtd"
   xmlns="http://www.w3.org/2000/svg"
   xmlns:svg="http://www.w3.org/2000/svg"><sodipodi:namedview
     id="namedview1"
     pagecolor="#ffffff"
     bordercolor="#000000"
     borderopacity="0.25"
     inkscape:showpageshadow="2"
     inkscape:pageopacity="0.0"
     inkscape:pagecheckerboard="0"
     inkscape:deskcolor="#d1d1d1"
     inkscape:document-units="mm"
     inkscape:zoom="0.7113394"
     inkscape:cx="462.50777"
     inkscape:cy="16.869584"
     inkscape:window-width="1712"
     inkscape:window-height="1069"
     inkscape:window-x="0"
     inkscape:window-y="38"
     inkscape:window-maximized="0"
     inkscape:current-layer="g2" /><defs
     id="defs1" /><g
     inkscape:label="Capa 1"
     inkscape:groupmode="layer"
     id="layer1"
     transform="translate(22.546609,-77.062501)"><g
       id="g1"
       transform="matrix(0.26458333,0,0,0.26458333,-22.546609,77.062501)"><g
         id="g2"><path
           d="m 0,67 14.5,0.5 C 29,68 58,69 87.2,72.2 c 29.1,3.1 58.5,8.5 87.6,11.1 C 204,86 233,86 262,84.2 291,82.3 320,78.7 349,75.3 378,72 407,69 436.2,66 465.3,63 494.7,60 523.8,58.5 553,57 582,57 611,58 c 29,1 58,3 87,7.5 29,4.5 58,11.5 87.2,11 29.1,-0.5 58.5,-8.5 87.6,-8.7 29.2,-0.1 58.2,7.5 72.7,11.4 L 960,83 V 16 h -14.5 c -14.5,0 -43.5,0 -72.7,0 -29.1,0 -58.5,0 -87.6,0 -29.2,0 -58.2,0 -87.2,0 -29,0 -58,0 -87,0 -29,0 -58,0 -87.2,0 -29.1,0 -58.5,0 -87.6,0 -29.2,0 -58.2,0 -87.2,0 -29,0 -58,0 -87,0 -29,0 -58,0 -87.2,0 -29.1,0 -58.5,0 -87.6,0 C 58,16 29,16 14.5,16 H 0 Z"
           fill="#d3e1f6"
           id="path1" /><path
           d="m 0,57 14.5,-3.3 c 14.5,-3.4 43.5,-10 72.7,-11 29.1,-1 58.5,3.6 87.6,7 29.2,3.3 58.2,5.3 87.2,2.5 29,-2.9 58,-10.5 87,-12.9 29,-2.3 58,0.7 87.2,3.4 29.1,2.6 58.5,5 87.6,5.8 29.2,0.8 58.2,0.2 87.2,-1.2 29,-1.3 58,-3.3 87,-1.1 29,2.1 58,8.5 87.2,7.8 29.1,-0.7 58.5,-8.3 87.6,-9.8 29.2,-1.5 58.2,3.1 72.7,5.5 L 960,52 V 4 H 945.5 C 931,4 902,4 872.8,4 843.7,4 814.3,4 785.2,4 756,4 727,4 698,4 669,4 640,4 611,4 582,4 553,4 523.8,4 494.7,4 465.3,4 436.2,4 407,4 378,4 349,4 320,4 291,4 262,4 233,4 204,4 174.8,4 145.7,4 116.3,4 87.2,4 58,4 29,4 14.5,4 H 0 Z"
           fill="#9badc8"
           id="path2" /><path
           d="m 0,31 14.5,0.8 c 14.5,0.9 43.5,2.5 72.7,0 29.1,-2.5 58.5,-9.1 87.6,-10.1 29.2,-1 58.2,3.6 87.2,3.6 29,0 58,-4.6 87,-6.8 29,-2.2 58,-1.8 87.2,-1.8 29.1,0 58.5,-0.4 87.6,1.6 29.2,2 58.2,6.4 87.2,6.4 29,0 58,-4.4 87,-3.4 29,1 58,7.4 87.2,10.7 29.1,3.3 58.5,3.7 87.6,2.5 29.2,-1.2 58.2,-3.8 72.7,-5.2 L 960,28 V 0 H 945.5 C 931,0 902,0 872.8,0 843.7,0 814.3,0 785.2,0 756,0 727,0 698,0 669,0 640,0 611,0 582,0 553,0 523.8,0 494.7,0 465.3,0 436.2,0 407,0 378,0 349,0 320,0 291,0 262,0 233,0 204,0 174.8,0 145.7,0 116.3,0 87.2,0 58,0 29,0 14.5,0 H 0 Z"
           fill="#667c9b"
           id="path3" /></g></g></g></svg>
