<?xml version="1.0" encoding="UTF-8" standalone="no"?>
<!-- Created with Inkscape (http://www.inkscape.org/) -->

<svg
   width="278.17679mm"
   height="22.609833mm"
   viewBox="0 0 278.17679 22.609833"
   version="1.1"
   id="svg1"
   xml:space="preserve"
   sodipodi:docname="layer-horizontal.svg"
   inkscape:version="1.3.2 (091e20e, 2023-11-25)"
   xmlns:inkscape="http://www.inkscape.org/namespaces/inkscape"
   xmlns:sodipodi="http://sodipodi.sourceforge.net/DTD/sodipodi-0.dtd"
   xmlns="http://www.w3.org/2000/svg"
   xmlns:svg="http://www.w3.org/2000/svg"><sodipodi:namedview
     id="namedview1"
     pagecolor="#ffffff"
     bordercolor="#000000"
     borderopacity="0.25"
     inkscape:showpageshadow="2"
     inkscape:pageopacity="0.0"
     inkscape:pagecheckerboard="0"
     inkscape:deskcolor="#d1d1d1"
     inkscape:document-units="mm"
     inkscape:zoom="0.7113394"
     inkscape:cx="462.50777"
     inkscape:cy="17.572484"
     inkscape:window-width="1712"
     inkscape:window-height="1040"
     inkscape:window-x="0"
     inkscape:window-y="39"
     inkscape:window-maximized="0"
     inkscape:current-layer="g2" /><defs
     id="defs1" /><g
     inkscape:label="Capa 1"
     inkscape:groupmode="layer"
     id="layer1"
     transform="translate(22.546609,-77.062501)"><g
       id="g1"
       transform="matrix(0.26458333,0,0,0.26458333,-22.546609,77.062501)"><g
         id="g2"><path
           d="m 0,67 15.880172,0.5 c 15.880172,0.5 47.640517,1.5 79.619898,4.7 31.86986,3.1 64.06828,8.5 95.93814,11.1 31.97938,2.7 63.73973,2.7 95.50007,0.9 31.76035,-1.9 63.52069,-5.5 95.28104,-8.9 31.76034,-3.3 63.52069,-6.3 95.50007,-9.3 31.86986,-3 64.06828,-6 95.93814,-7.5 31.97938,-1.5 63.73973,-1.5 95.50007,-0.5 31.76034,1 63.52069,3 95.28103,7.5 31.76035,4.5 63.52069,11.5 95.50007,11 31.86987,-0.5 64.06828,-8.5 95.93815,-8.7 31.97938,-0.1 63.73975,7.5 79.61985,11.4 l 15.8802,3.8 V 16 h -15.8802 c -15.8801,0 -47.64047,0 -79.61985,0 -31.86987,0 -64.06828,0 -95.93815,0 -31.97938,0 -63.73972,0 -95.50007,0 -31.76034,0 -63.52069,0 -95.28103,0 -31.76034,0 -63.52069,0 -95.50007,0 -31.86986,0 -64.06828,0 -95.93814,0 -31.97938,0 -63.73973,0 -95.50007,0 -31.76035,0 -63.52069,0 -95.28104,0 -31.76034,0 -63.52069,0 -95.50007,0 -31.86986,0 -64.06828,0 -95.93814,0 -31.979381,0 -63.739726,0 -79.619898,0 H 0 Z"
           fill="#d3e1f6"
           id="path1"
           style="stroke-width:1.04651" /><path
           d="m 0,57 15.880172,-3.3 c 15.880172,-3.4 47.640517,-10 79.619898,-11 31.86986,-1 64.06828,3.6 95.93814,7 31.97938,3.3 63.73973,5.3 95.50007,2.5 31.76035,-2.9 63.52069,-10.5 95.28104,-12.9 31.76034,-2.3 63.52069,0.7 95.50007,3.4 31.86986,2.6 64.06828,5 95.93814,5.8 31.97938,0.8 63.73973,0.2 95.50007,-1.2 31.76034,-1.3 63.52069,-3.3 95.28103,-1.1 31.76035,2.1 63.52069,8.5 95.50007,7.8 31.86987,-0.7 64.06828,-8.3 95.93815,-9.8 31.97938,-1.5 63.73975,3.1 79.61985,5.5 l 15.8802,2.3 V 4 h -15.8802 C 1019.6166,4 987.85623,4 955.87685,4 924.00698,4 891.80857,4 859.9387,4 827.95932,4 796.19898,4 764.43863,4 732.67829,4 700.91794,4 669.1576,4 637.39726,4 605.63691,4 573.65753,4 541.78767,4 509.58925,4 477.71939,4 445.74001,4 413.97966,4 382.21932,4 350.45897,4 318.69863,4 286.93828,4 255.17794,4 223.41759,4 191.43821,4 159.56835,4 127.36993,4 95.50007,4 63.520689,4 31.760344,4 15.880172,4 H 0 Z"
           fill="#9badc8"
           id="path2"
           style="stroke-width:1.04651" /><path
           d="m 0,31 15.880172,0.8 c 15.880172,0.9 47.640517,2.5 79.619898,0 31.86986,-2.5 64.06828,-9.1 95.93814,-10.1 31.97938,-1 63.73973,3.6 95.50007,3.6 31.76035,0 63.52069,-4.6 95.28104,-6.8 31.76034,-2.2 63.52069,-1.8 95.50007,-1.8 31.86986,0 64.06828,-0.4 95.93814,1.6 31.97938,2 63.73973,6.4 95.50007,6.4 31.76034,0 63.52069,-4.4 95.28103,-3.4 31.76035,1 63.52069,7.4 95.50007,10.7 31.86987,3.3 64.06828,3.7 95.93815,2.5 31.97938,-1.2 63.73975,-3.8 79.61985,-5.2 L 1051.3769,28 V 0 h -15.8802 C 1019.6166,0 987.85623,0 955.87685,0 924.00698,0 891.80857,0 859.9387,0 827.95932,0 796.19898,0 764.43863,0 732.67829,0 700.91794,0 669.1576,0 637.39726,0 605.63691,0 573.65753,0 541.78767,0 509.58925,0 477.71939,0 445.74001,0 413.97966,0 382.21932,0 350.45897,0 318.69863,0 286.93828,0 255.17794,0 223.41759,0 191.43821,0 159.56835,0 127.36993,0 95.50007,0 63.520689,0 31.760344,0 15.880172,0 H 0 Z"
           fill="#667c9b"
           id="path3"
           style="stroke-width:1.04651" /></g></g></g></svg>
