<svg id="visual" viewBox="0 0 900 600" width="900" height="600" xmlns="http://www.w3.org/2000/svg" xmlns:xlink="http://www.w3.org/1999/xlink" version="1.1"><rect x="0" y="0" width="900" height="600" fill="#efebde"></rect><path d="M496 600L489.8 585.7C483.7 571.3 471.3 542.7 476.5 514.2C481.7 485.7 504.3 457.3 516.8 428.8C529.3 400.3 531.7 371.7 525 343C518.3 314.3 502.7 285.7 507 257C511.3 228.3 535.7 199.7 545.5 171.2C555.3 142.7 550.7 114.3 532.8 85.8C515 57.3 484 28.7 468.5 14.3L453 0L900 0L900 14.3C900 28.7 900 57.3 900 85.8C900 114.3 900 142.7 900 171.2C900 199.7 900 228.3 900 257C900 285.7 900 314.3 900 343C900 371.7 900 400.3 900 428.8C900 457.3 900 485.7 900 514.2C900 542.7 900 571.3 900 585.7L900 600Z" fill="#d3e1f6"></path><path d="M597 600L591.2 585.7C585.3 571.3 573.7 542.7 571.2 514.2C568.7 485.7 575.3 457.3 580.8 428.8C586.3 400.3 590.7 371.7 584 343C577.3 314.3 559.7 285.7 562.7 257C565.7 228.3 589.3 199.7 583.2 171.2C577 142.7 541 114.3 540.3 85.8C539.7 57.3 574.3 28.7 591.7 14.3L609 0L900 0L900 14.3C900 28.7 900 57.3 900 85.8C900 114.3 900 142.7 900 171.2C900 199.7 900 228.3 900 257C900 285.7 900 314.3 900 343C900 371.7 900 400.3 900 428.8C900 457.3 900 485.7 900 514.2C900 542.7 900 571.3 900 585.7L900 600Z" fill="#b9c9e0"></path><path d="M640 600L637.8 585.7C635.7 571.3 631.3 542.7 635.3 514.2C639.3 485.7 651.7 457.3 644.8 428.8C638 400.3 612 371.7 608.7 343C605.3 314.3 624.7 285.7 638.8 257C653 228.3 662 199.7 664.7 171.2C667.3 142.7 663.7 114.3 659.7 85.8C655.7 57.3 651.3 28.7 649.2 14.3L647 0L900 0L900 14.3C900 28.7 900 57.3 900 85.8C900 114.3 900 142.7 900 171.2C900 199.7 900 228.3 900 257C900 285.7 900 314.3 900 343C900 371.7 900 400.3 900 428.8C900 457.3 900 485.7 900 514.2C900 542.7 900 571.3 900 585.7L900 600Z" fill="#9fb1cb"></path><path d="M654 600L653 585.7C652 571.3 650 542.7 658.3 514.2C666.7 485.7 685.3 457.3 686.2 428.8C687 400.3 670 371.7 676.3 343C682.7 314.3 712.3 285.7 722.7 257C733 228.3 724 199.7 718.3 171.2C712.7 142.7 710.3 114.3 707 85.8C703.7 57.3 699.3 28.7 697.2 14.3L695 0L900 0L900 14.3C900 28.7 900 57.3 900 85.8C900 114.3 900 142.7 900 171.2C900 199.7 900 228.3 900 257C900 285.7 900 314.3 900 343C900 371.7 900 400.3 900 428.8C900 457.3 900 485.7 900 514.2C900 542.7 900 571.3 900 585.7L900 600Z" fill="#8699b6"></path><path d="M757 600L758.8 585.7C760.7 571.3 764.3 542.7 761.3 514.2C758.3 485.7 748.7 457.3 742.8 428.8C737 400.3 735 371.7 731.3 343C727.7 314.3 722.3 285.7 719.2 257C716 228.3 715 199.7 718 171.2C721 142.7 728 114.3 736.8 85.8C745.7 57.3 756.3 28.7 761.7 14.3L767 0L900 0L900 14.3C900 28.7 900 57.3 900 85.8C900 114.3 900 142.7 900 171.2C900 199.7 900 228.3 900 257C900 285.7 900 314.3 900 343C900 371.7 900 400.3 900 428.8C900 457.3 900 485.7 900 514.2C900 542.7 900 571.3 900 585.7L900 600Z" fill="#6d82a1"></path><path d="M845 600L844 585.7C843 571.3 841 542.7 834 514.2C827 485.7 815 457.3 811.8 428.8C808.7 400.3 814.3 371.7 821.3 343C828.3 314.3 836.7 285.7 838.8 257C841 228.3 837 199.7 836.2 171.2C835.3 142.7 837.7 114.3 835.3 85.8C833 57.3 826 28.7 822.5 14.3L819 0L900 0L900 14.3C900 28.7 900 57.3 900 85.8C900 114.3 900 142.7 900 171.2C900 199.7 900 228.3 900 257C900 285.7 900 314.3 900 343C900 371.7 900 400.3 900 428.8C900 457.3 900 485.7 900 514.2C900 542.7 900 571.3 900 585.7L900 600Z" fill="#556c8d"></path></svg>